<svg width="18" height="15" viewBox="0 0 18 15" fill="none" xmlns="http://www.w3.org/2000/svg">
<path d="M15 7.5C15 8.32845 14.7761 9 14.5 9C14.2239 9 14 8.32845 14 7.5C14 6.67155 14.2239 6 14.5 6C14.7761 6 15 6.67155 15 7.5Z" fill="#1D1D1D"/>
<path fill-rule="evenodd" clip-rule="evenodd" d="M7.27835 3.8842e-07H9.88443C11.4231 -1.67544e-05 12.6417 -2.52766e-05 13.5954 0.131263C14.577 0.266366 15.3715 0.551041 15.9981 1.19249C16.7719 1.98483 17.0185 3.04597 17.1081 4.42293C17.5914 4.64066 17.9563 5.10111 17.9965 5.68439C18.0001 5.73599 18 5.79163 18 5.84314C18 5.84786 18 5.85249 18 5.85711V9.14289C18 9.14751 18 9.15214 18 9.15686C18 9.20837 18.0001 9.264 17.9965 9.3156C17.9563 9.89889 17.5914 10.3593 17.1081 10.5771C17.0185 11.9541 16.7719 13.0152 15.9981 13.8075C15.3715 14.4489 14.577 14.7336 13.5954 14.8688C12.6417 15 11.4231 15 9.88443 15H7.27835C5.73976 15 4.52109 15 3.56733 14.8688C2.58577 14.7336 1.7913 14.4489 1.16476 13.8075C0.538225 13.1661 0.260171 12.3526 0.128211 11.3477C-2.47886e-05 10.3713 -1.63648e-05 9.1236 3.79425e-07 7.54834V7.45166C-1.63648e-05 5.8764 -2.47886e-05 4.62874 0.128211 3.65227C0.260171 2.64734 0.538225 1.83395 1.16476 1.19249C1.7913 0.551041 2.58577 0.266366 3.56733 0.131263C4.52109 -2.52766e-05 5.73976 -1.67544e-05 7.27835 3.8842e-07ZM15.8382 10.7143H14.2165C12.4205 10.7143 10.8837 9.3192 10.8837 7.5C10.8837 5.68077 12.4205 4.28571 14.2165 4.28571H15.8382C15.743 3.1359 15.5274 2.52894 15.11 2.10163C14.7557 1.73888 14.2704 1.52145 13.4282 1.40551C12.5678 1.28708 11.4336 1.28571 9.83721 1.28571H7.32558C5.72917 1.28571 4.59503 1.28708 3.73467 1.40551C2.89236 1.52145 2.40707 1.73888 2.05275 2.10163C1.69844 2.46438 1.48606 2.96122 1.37282 3.82359C1.25715 4.70444 1.25581 5.8656 1.25581 7.5C1.25581 9.1344 1.25715 10.2956 1.37282 11.1765C1.48606 12.0387 1.69844 12.5356 2.05275 12.8984C2.40707 13.2611 2.89236 13.4786 3.73467 13.5945C4.59503 13.7129 5.72917 13.7143 7.32558 13.7143H9.83721C11.4336 13.7143 12.5678 13.7129 13.4282 13.5945C14.2704 13.4786 14.7557 13.2611 15.11 12.8984C15.5274 12.4711 15.743 11.8641 15.8382 10.7143ZM16.4708 5.57163C16.4538 5.57144 16.4316 5.57143 16.3953 5.57143H14.2165C13.0248 5.57143 12.1395 6.47889 12.1395 7.5C12.1395 8.52111 13.0248 9.42857 14.2165 9.42857H16.3953C16.4316 9.42857 16.4538 9.42857 16.4708 9.4284C16.4813 9.42823 16.4868 9.42814 16.4894 9.42797L16.4913 9.42789C16.6639 9.41717 16.7381 9.29794 16.7438 9.2262C16.7438 9.2262 16.7439 9.2208 16.744 9.21309C16.7442 9.19783 16.7442 9.1776 16.7442 9.14289V5.85711C16.7442 5.8224 16.7442 5.80217 16.744 5.78691C16.7439 5.77918 16.7438 5.77379 16.7438 5.77379C16.7381 5.70207 16.6639 5.58283 16.4913 5.57208C16.4913 5.57208 16.4872 5.5718 16.4708 5.57163ZM4.81395 4.28571C5.16073 4.28571 5.44186 4.57353 5.44186 4.92857V10.0714C5.44186 10.4265 5.16073 10.7143 4.81395 10.7143C4.46717 10.7143 4.18605 10.4265 4.18605 10.0714V4.92857C4.18605 4.57353 4.46717 4.28571 4.81395 4.28571Z" fill="#1D1D1D"/>
</svg>
