<svg width="21" height="21" viewBox="0 0 21 21" fill="none" xmlns="http://www.w3.org/2000/svg">
<path fill-rule="evenodd" clip-rule="evenodd" d="M1.53769 1.53769C-1.2517e-07 3.07538 0 5.55025 0 10.5C0 15.4497 -1.2517e-07 17.9247 1.53769 19.4623C3.07538 21 5.55025 21 10.5 21C15.4497 21 17.9247 21 19.4623 19.4623C21 17.9247 21 15.4497 21 10.5C21 5.55025 21 3.07538 19.4623 1.53769C17.9247 -1.2517e-07 15.4497 0 10.5 0C5.55025 0 3.07538 -1.2517e-07 1.53769 1.53769ZM15.75 11.2C15.75 15.68 12.0166 16.8 10.15 16.8C8.51665 16.8 5.25 15.68 5.25 11.2C5.25 9.25144 6.36607 8.01439 7.30373 7.39173C7.73242 7.10706 8.26561 7.28901 8.29333 7.80287C8.35397 8.92721 9.22047 9.83031 9.89152 8.92615C10.5057 8.09863 10.8088 6.97486 10.8088 6.3C10.8088 5.30588 11.8151 4.67416 12.6008 5.28323C14.1323 6.47041 15.75 8.45859 15.75 11.2Z" fill="white"/>
</svg>
