<svg width="76" height="76" viewBox="0 0 76 76" fill="none" xmlns="http://www.w3.org/2000/svg">
<g opacity="0.4">
<path d="M5.56499 70.4349C11.1299 76 20.0866 76 38 76C55.9132 76 64.8702 76 70.4349 70.4349C76 64.8702 76 55.9132 76 38C76 20.0866 76 11.1299 70.4349 5.56499C64.8702 -4.52995e-07 55.9132 0 38 0C20.0866 0 11.1299 -4.52995e-07 5.56499 5.56499C-4.52995e-07 11.1299 0 20.0866 0 38C0 55.9132 -4.52995e-07 64.8702 5.56499 70.4349Z" fill="black"/>
<path d="M37.6804 62.8661C25.9968 62.8661 17.7087 54.8263 17.7087 43.7492C17.7087 37.8685 21.2623 31.5327 21.4127 31.2681C21.7211 30.7238 22.327 30.427 22.9593 30.4962C23.5854 30.5761 24.0999 31.0236 24.2611 31.628C24.2704 31.6649 25.2281 35.2204 26.4927 37.195C27.342 38.5237 28.2037 39.4633 29.1723 40.1153C28.5167 37.2965 28.0146 33.0551 28.8313 28.703C31.0754 16.7571 40.5506 13.8983 40.9566 13.7845C41.4789 13.6353 42.0337 13.7691 42.4304 14.1274C42.8271 14.4888 43.0085 15.0286 42.9062 15.553C42.8907 15.636 41.3254 24.0003 44.6466 31.1267C44.9488 31.7741 45.3687 32.5261 45.8213 33.2781C45.9499 32.2447 46.1498 31.1467 46.4567 30.0794C47.6748 25.8519 50.8254 24.4079 50.9571 24.3494C51.4825 24.1126 52.0962 24.1895 52.5487 24.5432C53.0013 24.8984 53.2198 25.4705 53.1144 26.0333C53.0974 26.1379 52.6588 29.0137 55.126 33.0951C57.3545 36.7798 57.9961 39.168 57.9961 43.7492C57.9961 54.8263 49.4508 62.8646 37.6773 62.8646L37.6804 62.8661ZM22.5347 36.1662C21.6839 38.2961 20.8067 41.1272 20.8067 43.7492C20.8067 53.0439 27.7899 59.7889 37.6789 59.7889C47.6562 59.7889 54.8966 53.0439 54.8966 43.7477C54.8966 39.7324 54.396 37.8701 52.4682 34.676C51.1788 32.5446 50.5418 30.6269 50.2381 29.1013C49.9312 29.595 49.6461 30.1963 49.4384 30.9221C48.493 34.1993 48.7317 38.0316 48.7348 38.0715C48.7797 38.7574 48.3598 39.3925 47.7058 39.6217C47.0518 39.8508 46.3234 39.6248 45.922 39.0619C45.8058 38.8974 43.0488 35.0266 41.8353 32.4185C39.3123 27.0083 39.3541 21.1569 39.613 17.7875C37.059 19.2638 33.1396 22.5609 31.8812 29.269C30.6554 35.7955 33.0373 42.3221 33.0621 42.3852C33.2683 42.9173 33.1598 43.5216 32.7816 43.9507C32.4019 44.3767 31.8177 44.5658 31.2536 44.432C31.0614 44.3859 26.7004 43.2602 23.8752 38.8435C23.3715 38.0531 22.919 37.095 22.5362 36.1646L22.5347 36.1662Z" fill="white"/>
</g>
</svg>
