<svg width="4" height="18" viewBox="0 0 4 18" fill="none" xmlns="http://www.w3.org/2000/svg">
<path fill-rule="evenodd" clip-rule="evenodd" d="M3.66354 2.49528C3.66354 3.50178 2.84761 4.31771 1.84111 4.31771C0.834606 4.31771 0.0186768 3.50178 0.0186768 2.49528C0.0186768 1.48878 0.834606 0.672852 1.84111 0.672852C2.84761 0.672852 3.66354 1.48878 3.66354 2.49528ZM3.66355 8.87377C3.66355 9.88027 2.84762 10.6962 1.84112 10.6962C0.834621 10.6962 0.0186916 9.88027 0.0186916 8.87377C0.0186916 7.86727 0.834621 7.05134 1.84112 7.05134C2.84762 7.05134 3.66355 7.86727 3.66355 8.87377ZM1.84112 17.0747C2.84762 17.0747 3.66355 16.2588 3.66355 15.2523C3.66355 14.2458 2.84762 13.4298 1.84112 13.4298C0.834621 13.4298 0.0186916 14.2458 0.0186916 15.2523C0.0186916 16.2588 0.834621 17.0747 1.84112 17.0747Z" fill="black"/>
</svg>
